{
  "accessors": [
    {
      "bufferView": 2,
      "componentType": 5126,
      "count": 65532,
      "max": [
        38.33482360839844,
        28.94582176208496,
        23.466283798217773
      ],
      "min": [
        -10.670141220092773,
        -36.83183288574219,
        -1.773416519165039
      ],
      "type": "VEC3"
    },
    {
      "bufferView": 2,
      "byteOffset": 786384,
      "componentType": 5126,
      "count": 65532,
      "type": "VEC3"
    },
    {
      "bufferView": 1,
      "componentType": 5126,
      "count": 65532,
      "type": "VEC2"
    },
    {
      "bufferView": 0,
      "componentType": 5125,
      "count": 329148,
      "type": "SCALAR"
    },
    {
      "bufferView": 2,
      "byteOffset": 1572768,
      "componentType": 5126,
      "count": 65532,
      "max": [
        30.780200958251953,
        19.955312728881836,
        23.11546516418457
      ],
      "min": [
        -10.670141220092773,
        -35.347801208496094,
        -1.4448356628417969
      ],
      "type": "VEC3"
    },
    {
      "bufferView": 2,
      "byteOffset": 2359152,
      "componentType": 5126,
      "count": 65532,
      "type": "VEC3"
    },
    {
      "bufferView": 1,
      "byteOffset": 524256,
      "componentType": 5126,
      "count": 65532,
      "type": "VEC2"
    },
    {
      "bufferView": 0,
      "byteOffset": 1316592,
      "componentType": 5125,
      "count": 320523,
      "type": "SCALAR"
    },
    {
      "bufferView": 2,
      "byteOffset": 3145536,
      "componentType": 5126,
      "count": 65532,
      "max": [
        34.4200439453125,
        28.955581665039063,
        23.25732421875
      ],
      "min": [
        -10.626422882080078,
        -32.899681091308594,
        -1.4440231323242188
      ],
      "type": "VEC3"
    },
    {
      "bufferView": 2,
      "byteOffset": 3931920,
      "componentType": 5126,
      "count": 65532,
      "type": "VEC3"
    },
    {
      "bufferView": 1,
      "byteOffset": 1048512,
      "componentType": 5126,
      "count": 65532,
      "type": "VEC2"
    },
    {
      "bufferView": 0,
      "byteOffset": 2598684,
      "componentType": 5125,
      "count": 301800,
      "type": "SCALAR"
    },
    {
      "bufferView": 2,
      "byteOffset": 4718304,
      "componentType": 5126,
      "count": 65532,
      "max": [
        25.92837142944336,
        28.94582176208496,
        23.28285026550293
      ],
      "min": [
        -10.327083587646484,
        -36.83740234375,
        -1.5840377807617188
      ],
      "type": "VEC3"
    },
    {
      "bufferView": 2,
      "byteOffset": 5504688,
      "componentType": 5126,
      "count": 65532,
      "type": "VEC3"
    },
    {
      "bufferView": 1,
      "byteOffset": 1572768,
      "componentType": 5126,
      "count": 65532,
      "type": "VEC2"
    },
    {
      "bufferView": 0,
      "byteOffset": 3805884,
      "componentType": 5125,
      "count": 283344,
      "type": "SCALAR"
    },
    {
      "bufferView": 2,
      "byteOffset": 6291072,
      "componentType": 5126,
      "count": 39960,
      "max": [
        21.71950912475586,
        13.953645706176758,
        23.468168258666992
      ],
      "min": [
        -10.24262809753418,
        -23.50153160095215,
        8.12697982788086
      ],
      "type": "VEC3"
    },
    {
      "bufferView": 2,
      "byteOffset": 6770592,
      "componentType": 5126,
      "count": 39960,
      "type": "VEC3"
    },
    {
      "bufferView": 1,
      "byteOffset": 2097024,
      "componentType": 5126,
      "count": 39960,
      "type": "VEC2"
    },
    {
      "bufferView": 0,
      "byteOffset": 4939260,
      "componentType": 5125,
      "count": 157131,
      "type": "SCALAR"
    }
  ],
  "asset": {
    "generator": "fab-model-conversion",
    "version": "2.0"
  },
  "bufferViews": [
    {
      "buffer": 0,
      "byteLength": 5567784,
      "target": 34963
    },
    {
      "buffer": 0,
      "byteLength": 2416704,
      "byteOffset": 5567784,
      "byteStride": 8,
      "target": 34962
    },
    {
      "buffer": 0,
      "byteLength": 7250112,
      "byteOffset": 7984488,
      "byteStride": 12,
      "target": 34962
    }
  ],
  "buffers": [
    {
      "byteLength": 15234600,
      "uri": "scene.bin"
    }
  ],
  "images": [
    {
      "uri": "textures/Material_u1_v1_baseColor.png"
    }
  ],
  "materials": [
    {
      "doubleSided": true,
      "name": "Material_u1_v1",
      "pbrMetallicRoughness": {
        "baseColorTexture": {
          "index": 0
        },
        "roughnessFactor": 0.1000751147546961
      }
    }
  ],
  "meshes": [
    {
      "name": "meshNode_Material_u1_v1_0",
      "primitives": [
        {
          "attributes": {
            "NORMAL": 1,
            "POSITION": 0,
            "TEXCOORD_0": 2
          },
          "indices": 3,
          "material": 0,
          "mode": 4
        }
      ]
    },
    {
      "name": "meshNode_Material_u1_v1_0",
      "primitives": [
        {
          "attributes": {
            "NORMAL": 5,
            "POSITION": 4,
            "TEXCOORD_0": 6
          },
          "indices": 7,
          "material": 0,
          "mode": 4
        }
      ]
    },
    {
      "name": "meshNode_Material_u1_v1_0",
      "primitives": [
        {
          "attributes": {
            "NORMAL": 9,
            "POSITION": 8,
            "TEXCOORD_0": 10
          },
          "indices": 11,
          "material": 0,
          "mode": 4
        }
      ]
    },
    {
      "name": "meshNode_Material_u1_v1_0",
      "primitives": [
        {
          "attributes": {
            "NORMAL": 13,
            "POSITION": 12,
            "TEXCOORD_0": 14
          },
          "indices": 15,
          "material": 0,
          "mode": 4
        }
      ]
    },
    {
      "name": "meshNode_Material_u1_v1_0",
      "primitives": [
        {
          "attributes": {
            "NORMAL": 17,
            "POSITION": 16,
            "TEXCOORD_0": 18
          },
          "indices": 19,
          "material": 0,
          "mode": 4
        }
      ]
    }
  ],
  "nodes": [
    {
      "children": [
        1
      ],
      "matrix": [
        1.0,
        0.0,
        0.0,
        0.0,
        0.0,
        2.220446049250313e-16,
        -1.0,
        0.0,
        0.0,
        1.0,
        2.220446049250313e-16,
        0.0,
        0.0,
        0.0,
        0.0,
        1.0
      ],
      "name": "Sketchfab_model"
    },
    {
      "children": [
        2
      ],
      "matrix": [
        1.0,
        0.0,
        0.0,
        0.0,
        0.0,
        0.0,
        1.0,
        0.0,
        0.0,
        -1.0,
        0.0,
        0.0,
        0.0,
        0.0,
        0.0,
        1.0
      ],
      "name": "iceland-mountain.fbx"
    },
    {
      "children": [
        3
      ],
      "name": "RootNode"
    },
    {
      "children": [
        4,
        5,
        6,
        7,
        8
      ],
      "matrix": [
        1.9470718837233392e-05,
        5.551115123125783e-15,
        99.99999999999812,
        0.0,
        99.99999999999802,
        -4.371139006309477e-06,
        -1.9470718864988967e-05,
        0.0,
        4.371138995207247e-06,
        99.99999999999993,
        -8.881784197001252e-13,
        0.0,
        0.0,
        0.0,
        0.0,
        1.0
      ],
      "name": "meshNode"
    },
    {
      "mesh": 0,
      "name": "meshNode_Material_u1_v1_0"
    },
    {
      "mesh": 1,
      "name": "meshNode_Material_u1_v1_0"
    },
    {
      "mesh": 2,
      "name": "meshNode_Material_u1_v1_0"
    },
    {
      "mesh": 3,
      "name": "meshNode_Material_u1_v1_0"
    },
    {
      "mesh": 4,
      "name": "meshNode_Material_u1_v1_0"
    }
  ],
  "samplers": [
    {
      "magFilter": 9729,
      "minFilter": 9987,
      "wrapS": 10497,
      "wrapT": 10497
    }
  ],
  "scene": 0,
  "scenes": [
    {
      "name": "Sketchfab_Scene",
      "nodes": [
        0
      ]
    }
  ],
  "textures": [
    {
      "sampler": 0,
      "source": 0
    }
  ]
}
